<mxfile host="app.diagrams.net" modified="2023-11-20T22:08:26.346Z" agent="Mozilla/5.0 (Windows NT 10.0; Win64; x64) AppleWebKit/537.36 (KHTML, like Gecko) Chrome/119.0.0.0 Safari/537.36" version="22.1.3" etag="k7yGl4V3bHU7bteHB99y" type="github">
  <diagram name="Page-1" id="yUaCSsm_1FF07VCq7Kvc">
    <mxGraphModel>
      <root>
        <mxCell id="0" />
        <mxCell id="1" parent="0" />
      </root>
    </mxGraphModel>
  </diagram>
</mxfile>
